<svg width="250" height="74" viewBox="0 0 250 74" fill="none" xmlns="http://www.w3.org/2000/svg">
<path d="M10.3823 46.6618L25.7941 4.20588H36.4706L51.9265 46.6618V49.3088H41.9117L38.0588 37.8382H22.397L18.6911 49.3088H10.3823V46.6618ZM24.5882 30.9559H35.7353L30.1617 14.3235H30.0294L24.5882 30.9559Z" fill="#144D92"/>
<path d="M54.8088 46.9265V39.9706H57.8529C60.2708 41.9169 63.3101 42.9247 66.4118 42.8088C70.3382 42.8088 72.3823 41.7794 72.3823 39.6471C72.3823 37.5147 71.1323 36.6176 66.1765 36.0294C58.5441 35.1324 54.5 32.3676 54.5 25.7353C54.5 19.1029 59.7353 15.1029 68.2941 15.1029C72.0762 14.972 75.8328 15.7698 79.2353 17.4265V24.25H76.2941C73.9502 22.7359 71.2008 21.9716 68.4118 22.0588C64.6176 22.0588 63.2353 23.0735 63.2353 25C63.2353 26.9265 64.9412 27.6471 69.7206 28.2206C78.0147 29.25 81.4853 31.8971 81.4853 38.7353C81.4853 45.5735 77.0735 49.6912 66.9559 49.6912C62.7575 49.8373 58.5942 48.8789 54.8824 46.9118" fill="#144D92"/>
<path d="M82.5294 15.4853H86.6324V6.45588H96.3235V15.4853H103.368V21.7941H96.3235V39.1324C96.3235 42.353 97.6471 43.25 100.838 43.25H103.485V48.9265C101.511 49.5443 99.4512 49.847 97.3824 49.8235C90.6912 49.8235 86.6324 47.25 86.6324 40.2206V21.7941H82.5294V15.4853Z" fill="#144D92"/>
<path d="M114.456 34.4853C114.926 41.25 118.235 43.1324 123.618 43.1324C126.911 43.1828 130.136 42.1836 132.824 40.2794H135.765V46.4706C131.597 48.8081 126.864 49.9481 122.088 49.7647C110.676 49.7647 104.441 43.1912 104.441 32.5588C104.441 21.6618 111.794 14.9118 121.412 14.9118C131.706 14.9118 137.088 20.3971 137.088 31.5441C137.088 32.7059 136.956 34.1177 136.956 34.4853H114.456ZM114.588 28.8235H127.588C127.397 22.8235 125.265 20.8971 121.471 20.8971C118.103 20.8971 115.324 22.5 114.588 28.8235Z" fill="#144D92"/>
<path d="M151.471 24.8824V49.3088H141.824V15.4853H148.412C150.059 15.4853 151.059 16.1912 151.353 19.5441C152.579 18.1826 154.072 17.0883 155.739 16.3292C157.407 15.5702 159.212 15.1628 161.044 15.1324C161.768 15.1383 162.487 15.2523 163.177 15.4706V22.8235H161.515C158.053 22.7308 154.617 23.4353 151.471 24.8824Z" fill="#144D92"/>
<path d="M36.75 68.4559H36.3235L34.4117 60.1471H33.4558L31.5294 68.4559H31.0882L29.4411 60.0441H28.6029L30.4853 69.1912H32.1176L33.9264 61.1618L35.7206 69.1912H37.3529L39.2353 60.0441H38.4117L36.75 68.4559Z" fill="#58595B"/>
<path d="M42.7941 62.4853C41.1912 62.4853 40.0883 63.3824 40.0883 65.9265C40.0883 68.1177 40.6765 69.3088 42.6324 69.3235C43.4736 69.2979 44.3129 69.2291 45.1471 69.1177V68.4706C45.1471 68.4706 43.6765 68.5882 42.7353 68.5882C41.353 68.5882 40.9118 67.7647 40.9118 66.2059H45.3236V65.5882C45.3824 63.3824 44.5 62.4853 42.7941 62.4853ZM40.8971 65.5735C40.8971 63.8235 41.603 63.1618 42.7941 63.1618C43.9853 63.1618 44.603 63.7941 44.603 65.5735H40.8971Z" fill="#58595B"/>
<path d="M46.6029 62.5735H47.2353L48 59.7941H47.1617L46.6029 62.5735Z" fill="#58595B"/>
<path d="M50.4265 59.6912H49.6471V69.1912H50.4265V59.6912Z" fill="#58595B"/>
<path d="M53.3235 59.6912H52.5441V69.1912H53.3235V59.6912Z" fill="#58595B"/>
<path d="M64.0295 60.0441H57.4559V60.7794H60.353V69.1912H61.1618V60.7794H64.0295V60.0441Z" fill="#58595B"/>
<path d="M64.7059 62.603H63.9412V69.1912H64.7059V64.25C65.4867 63.7946 66.3285 63.4529 67.2059 63.2353V62.4559C66.3162 62.6507 65.4723 63.0152 64.7206 63.5294L64.7059 62.603Z" fill="#58595B"/>
<path d="M70.6618 62.4853C69.0588 62.4853 67.9412 63.3824 67.9412 65.9265C67.9412 68.1177 68.5441 69.3088 70.5 69.3235C71.3412 69.2979 72.1805 69.2291 73.0147 69.1177V68.4706C73.0147 68.4706 71.5441 68.5882 70.6029 68.5882C69.2206 68.5882 68.7794 67.7647 68.7794 66.2059H73.1912V65.5735C73.25 63.3824 72.3529 62.4853 70.6618 62.4853ZM68.75 65.5735C68.75 63.8235 69.4559 63.1618 70.6618 63.1618C71.8676 63.1618 72.4559 63.7941 72.4559 65.5735H68.75Z" fill="#58595B"/>
<path d="M79.4118 68.0882V64.5735C79.4118 63.1765 78.8088 62.4853 77.3824 62.4853C76.524 62.5095 75.6687 62.598 74.8236 62.75V63.3824C74.8236 63.3824 76.2942 63.1912 77.3089 63.1912C78.3236 63.1912 78.5883 63.5735 78.5883 64.5735V65.1912L76.353 65.4118C75.0294 65.5441 74.4265 66.1177 74.4265 67.3382C74.4265 68.5588 75.0736 69.3235 76.2206 69.3235C77.0751 69.2935 77.9171 69.1092 78.7059 68.7794C78.8971 68.9703 79.128 69.1167 79.3821 69.2082C79.6363 69.2997 79.9075 69.3341 80.1765 69.3088V68.6765C79.8088 68.6177 79.4118 68.4853 79.4118 68.0882ZM78.6324 68.1912C77.9105 68.4586 77.1514 68.6124 76.3824 68.6471C75.6471 68.6471 75.2794 68.1618 75.2794 67.3235C75.2578 67.1572 75.2728 66.9882 75.3235 66.8284C75.3742 66.6685 75.4593 66.5218 75.5729 66.3984C75.6865 66.275 75.8257 66.178 75.9808 66.1143C76.1359 66.0505 76.3031 66.0216 76.4706 66.0294L78.603 65.8088L78.6324 68.1912Z" fill="#58595B"/>
<path d="M83.6029 68.6177C82.6617 68.6177 82.5588 68.2059 82.5588 66.5588V63.3088H84.7499V62.6029H82.5588V60.5441H81.7647V62.6029H80.7941V63.3088H81.7647V66.9559C81.7647 68.8382 82.2352 69.3382 83.5441 69.3382C83.9873 69.3183 84.4292 69.2741 84.8676 69.2059V68.5294C84.8676 68.5294 83.9705 68.6177 83.6029 68.6177Z" fill="#58595B"/>
<path d="M93.8235 60.0441L91.3971 64.4706L88.9706 60.0441H88.0588L91 65.3235V69.1912H91.8088V65.3235L94.7353 60.0441H93.8235Z" fill="#58595B"/>
<path d="M97.4412 62.4706C95.4118 62.4706 94.6912 63.4706 94.6912 65.8088C94.6912 68.1471 95.2353 69.3235 97.4412 69.3235C99.6471 69.3235 100.191 68.2941 100.191 65.8088C100.191 63.3235 99.4706 62.4706 97.4412 62.4706ZM97.4412 68.6177C95.7353 68.6177 95.5 67.8235 95.5 65.8088C95.5 63.7941 95.9412 63.2353 97.4412 63.2353C98.9412 63.2353 99.397 63.8971 99.397 65.8677C99.397 67.8382 99.1471 68.6177 97.4412 68.6177Z" fill="#58595B"/>
<path d="M106.044 68.0588C105.455 68.3931 104.794 68.5798 104.118 68.6029C102.794 68.6029 102.647 67.9853 102.647 66.0294V62.6029H101.868V66.0441C101.868 68.5 102.235 69.3235 104.059 69.3235C104.775 69.2806 105.47 69.069 106.088 68.7059V69.1912H106.868V62.6029H106.088L106.044 68.0588Z" fill="#58595B"/>
<path d="M119.279 68.4559H118.838L116.926 60.1471H115.971L114.059 68.4559H113.618L111.956 60.0441H111.132L113.015 69.1912H114.647L116.441 61.1618L118.25 69.1912H119.882L121.765 60.0441H120.926L119.279 68.4559Z" fill="#58595B"/>
<path d="M125.324 62.4853C123.721 62.4853 122.603 63.3824 122.603 65.9265C122.603 68.1177 123.206 69.3088 125.162 69.3235C126.003 69.2979 126.842 69.2291 127.676 69.1177V68.4706C127.676 68.4706 126.206 68.5882 125.265 68.5882C123.882 68.5882 123.441 67.7647 123.441 66.2059H127.853V65.5735C127.941 63.3824 127.015 62.4853 125.324 62.4853ZM123.412 65.5735C123.412 63.8235 124.118 63.1618 125.324 63.1618C126.529 63.1618 127.118 63.7941 127.118 65.5735H123.412Z" fill="#58595B"/>
<path d="M130.382 59.6912H129.603V69.1912H130.382V59.6912Z" fill="#58595B"/>
<path d="M133.294 59.6912H132.515V69.1912H133.294V59.6912Z" fill="#58595B"/>
<path d="M239.309 36.7647C239.309 43.1461 237.417 49.3841 233.871 54.69C230.326 59.9959 225.287 64.1314 219.391 66.5734C213.496 69.0155 207.008 69.6544 200.75 68.4095C194.491 67.1645 188.742 64.0916 184.23 59.5793C179.717 55.067 176.644 49.318 175.399 43.0593C174.154 36.8005 174.793 30.3132 177.235 24.4175C179.677 18.5219 183.813 13.4829 189.119 9.93759C194.425 6.39229 200.663 4.5 207.044 4.5C215.601 4.5 223.808 7.89931 229.859 13.9501C235.91 20.0009 239.309 28.2076 239.309 36.7647Z" fill="white"/>
<path d="M183.279 36.0882C183.279 31.4119 184.666 26.8406 187.264 22.9522C189.861 19.0637 193.554 16.0328 197.874 14.2426C202.194 12.4524 206.948 11.9832 211.534 12.8945C216.121 13.8057 220.335 16.0564 223.642 19.362C226.95 22.6677 229.203 26.8798 230.117 31.4659C231.031 36.052 230.565 40.8062 228.778 45.1274C226.99 49.4486 223.962 53.1428 220.075 55.7429C216.188 58.343 211.617 59.7324 206.941 59.7353C203.835 59.7372 200.758 59.127 197.887 57.9395C195.017 56.752 192.408 55.0105 190.211 52.8144C188.013 50.6184 186.27 48.0109 185.081 45.141C183.892 42.271 183.279 39.1948 183.279 36.0882Z" fill="#00AC8D"/>
<path d="M183.059 35.7353C183.057 32.6313 183.667 29.5574 184.854 26.6893C186.041 23.8212 187.781 21.2152 189.976 19.0204C192.171 16.8255 194.777 15.0849 197.645 13.8979C200.513 12.711 203.587 12.101 206.691 12.1029C217.5 12.1029 227.029 18.7206 229.853 28.5882C229.379 28.9832 228.812 29.2514 228.206 29.3676C226.397 29.3676 223.882 31.6618 223.882 31.6618L219.118 37L210.647 45.5882C210.647 45.5882 209.868 45.75 209.779 44.3088C209.691 42.8677 208.574 37.7647 208.574 37.7647C208.098 38.9722 207.399 40.0796 206.515 41.0294C204.956 42.7353 197.926 46.7059 193.603 47.0441C192.412 47.1766 191.206 47.0464 190.07 46.6628C188.934 46.2791 187.896 45.6513 187.029 44.8235C186.14 43.2035 185.064 41.6932 183.824 40.3235C183.3 38.8513 183.041 37.2979 183.059 35.7353Z" fill="#223F99"/>
<path fill-rule="evenodd" clip-rule="evenodd" d="M210.397 29.4118C210.397 29.4118 210.162 29.1912 209.794 30.4412C209.533 32.0309 209.401 33.639 209.397 35.25C210.416 33.6634 211.107 31.888 211.426 30.0294C211.426 29.0294 210.397 29.4118 210.397 29.4118ZM204.765 36.2206C204.771 36.2447 204.771 36.27 204.765 36.2941C204.992 36.2446 205.23 36.2704 205.441 36.3677C205.794 36.6029 205.941 37.25 205.794 37.3677C205.647 37.4853 202.515 39.4265 201.809 39.1471C201.103 38.8677 198.309 36.0882 196.588 34.9412C194.868 33.7941 186.485 31.0882 186.118 38.1471C185.75 45.2059 193.029 47.2647 197.647 45.7059C202.265 44.1471 207.353 38.0294 207.353 38.0294C207.279 32.6912 207.779 31.2647 208.824 29.2059C209.868 27.1471 213.324 26.8971 212.75 30.5147C212.163 33.1034 210.991 35.5232 209.324 37.5882C210.016 39.8645 210.508 42.1969 210.794 44.5588C210.794 44.5588 218.824 35.1765 222.324 31.5882C225.824 28 228.5 29.4118 228.5 29.4118C227.706 29.7647 227.5 32.3529 227.353 32.8382C227.206 33.3235 226.294 32.8382 226.294 32.8382L226.426 31.9118C224.956 29.7059 221.941 33.6177 220.368 36.8971C219.201 40.0891 218.436 43.4135 218.088 46.7941L220.235 46.9412V48.0882C218.702 48.3028 217.213 48.7595 215.824 49.4412C215.756 48.6338 215.756 47.8221 215.824 47.0147C215.971 45.0147 217.544 38.7353 217.544 38.7353C217.544 38.7353 214.971 41.4559 214.044 42.6765C213.118 43.8971 208.824 48.8677 208.824 48.8677L208.118 48.1618C208.415 46.7738 208.577 45.3604 208.603 43.9412C208.471 42.8088 207.897 40.1029 207.897 40.1029L206.118 41.8824C204.035 43.9172 201.655 45.623 199.059 46.9412C185.294 51.2206 182.353 38.9118 186.029 34.3971C189.706 29.8824 194.853 31.7059 196.132 32.2647C197.706 32.9412 202.971 37.1765 203.632 37.25C204.294 37.3235 204.618 36.5294 204.735 36.3235C204.853 36.1177 204.706 36.2941 204.765 36.25V36.2206Z" fill="white"/>
<path d="M239.309 36.7647C239.309 43.1461 237.417 49.3841 233.871 54.69C230.326 59.9959 225.287 64.1314 219.391 66.5734C213.496 69.0155 207.008 69.6544 200.75 68.4095C194.491 67.1645 188.742 64.0916 184.23 59.5793C179.717 55.067 176.644 49.318 175.399 43.0593C174.154 36.8005 174.793 30.3132 177.235 24.4175C179.677 18.5219 183.813 13.4829 189.119 9.93759C194.425 6.39229 200.663 4.5 207.044 4.5C215.601 4.5 223.808 7.89931 229.859 13.9501C235.91 20.0009 239.309 28.2076 239.309 36.7647Z" fill="white"/>
<path d="M183.279 36.0882C183.279 31.4119 184.666 26.8406 187.264 22.9522C189.861 19.0637 193.554 16.0328 197.874 14.2426C202.194 12.4524 206.948 11.9832 211.534 12.8945C216.121 13.8057 220.335 16.0564 223.642 19.362C226.95 22.6677 229.203 26.8798 230.117 31.4659C231.031 36.052 230.565 40.8062 228.778 45.1274C226.99 49.4486 223.962 53.1428 220.075 55.7429C216.188 58.343 211.617 59.7324 206.941 59.7353C203.835 59.7372 200.758 59.127 197.887 57.9395C195.017 56.752 192.408 55.0105 190.211 52.8144C188.013 50.6184 186.27 48.0109 185.081 45.141C183.892 42.271 183.279 39.1948 183.279 36.0882Z" fill="#00B48D"/>
<path d="M183.059 35.7353C183.057 32.6313 183.667 29.5574 184.854 26.6893C186.041 23.8212 187.781 21.2152 189.976 19.0204C192.171 16.8255 194.777 15.0849 197.645 13.8979C200.513 12.711 203.587 12.101 206.691 12.1029C217.5 12.1029 227.029 18.7206 229.853 28.5882C229.379 28.9832 228.812 29.2514 228.206 29.3676C226.397 29.3676 223.882 31.6618 223.882 31.6618L219.118 37L210.647 45.5882C210.647 45.5882 209.868 45.75 209.779 44.3088C209.691 42.8677 208.574 37.7647 208.574 37.7647C208.098 38.9722 207.399 40.0796 206.515 41.0294C204.956 42.7353 197.926 46.7059 193.603 47.0441C192.412 47.1766 191.206 47.0464 190.07 46.6628C188.934 46.2791 187.896 45.6513 187.029 44.8235C186.14 43.2035 185.064 41.6932 183.824 40.3235C183.3 38.8513 183.041 37.2979 183.059 35.7353Z" fill="#164D92"/>
<path fill-rule="evenodd" clip-rule="evenodd" d="M210.397 29.4118C210.397 29.4118 210.162 29.1912 209.794 30.4412C209.533 32.0309 209.401 33.639 209.397 35.25C210.416 33.6634 211.107 31.888 211.426 30.0294C211.426 29.0294 210.397 29.4118 210.397 29.4118ZM204.765 36.2206C204.771 36.2447 204.771 36.27 204.765 36.2941C204.992 36.2446 205.23 36.2704 205.441 36.3677C205.794 36.6029 205.941 37.25 205.794 37.3677C205.647 37.4853 202.515 39.4265 201.809 39.1471C201.103 38.8677 198.309 36.0882 196.588 34.9412C194.868 33.7941 186.485 31.0882 186.118 38.1471C185.75 45.2059 193.029 47.2647 197.647 45.7059C202.265 44.1471 207.353 38.0294 207.353 38.0294C207.279 32.6912 207.779 31.2647 208.824 29.2059C209.868 27.1471 213.324 26.8971 212.75 30.5147C212.163 33.1034 210.991 35.5232 209.324 37.5882C210.016 39.8645 210.508 42.1969 210.794 44.5588C210.794 44.5588 218.824 35.1765 222.324 31.5882C225.824 28 228.5 29.4118 228.5 29.4118C227.706 29.7647 227.5 32.3529 227.353 32.8382C227.206 33.3235 226.294 32.8382 226.294 32.8382L226.426 31.9118C224.956 29.7059 221.941 33.6177 220.368 36.8971C219.201 40.0891 218.436 43.4135 218.088 46.7941L220.235 46.9412V48.0882C218.702 48.3028 217.213 48.7595 215.824 49.4412C215.756 48.6338 215.756 47.8221 215.824 47.0147C215.971 45.0147 217.544 38.7353 217.544 38.7353C217.544 38.7353 214.971 41.4559 214.044 42.6765C213.118 43.8971 208.824 48.8677 208.824 48.8677L208.118 48.1618C208.415 46.7738 208.577 45.3604 208.603 43.9412C208.471 42.8088 207.897 40.1029 207.897 40.1029L206.118 41.8824C204.035 43.9172 201.655 45.623 199.059 46.9412C185.294 51.2206 182.353 38.9118 186.029 34.3971C189.706 29.8824 194.853 31.7059 196.132 32.2647C197.706 32.9412 202.971 37.1765 203.632 37.25C204.294 37.3235 204.618 36.5294 204.735 36.3235C204.853 36.1177 204.706 36.2941 204.765 36.25V36.2206Z" fill="white"/>
<path d="M192.647 58.1324L191.956 58.0588C191.996 57.8946 191.996 57.723 191.956 57.5588C191.899 57.4285 191.808 57.3165 191.691 57.2353C191.546 57.1166 191.364 57.0539 191.176 57.0588C191.092 57.0643 191.011 57.0883 190.937 57.129C190.863 57.1696 190.799 57.226 190.75 57.2941C190.684 57.4177 190.657 57.5584 190.673 57.6976C190.689 57.8368 190.746 57.9679 190.838 58.0735L191.103 58.5294C191.3 58.8294 191.421 59.1725 191.456 59.5294C191.457 59.8344 191.353 60.1305 191.162 60.3677C191.045 60.5399 190.892 60.6854 190.715 60.7944C190.538 60.9034 190.339 60.9735 190.132 61C189.925 61.0271 189.714 61.0125 189.512 60.9569C189.309 60.9014 189.121 60.806 188.956 60.6765C188.796 60.5679 188.659 60.4288 188.553 60.2673C188.447 60.1058 188.374 59.9251 188.338 59.7353C188.283 59.3373 188.366 58.9322 188.574 58.5882L189.265 58.8971C189.155 59.0762 189.085 59.2768 189.059 59.4853C189.062 59.6021 189.09 59.717 189.14 59.8225C189.19 59.928 189.262 60.0219 189.35 60.098C189.439 60.1742 189.543 60.231 189.654 60.2647C189.766 60.2985 189.884 60.3085 190 60.2941C190.107 60.282 190.209 60.2468 190.301 60.1909C190.392 60.135 190.47 60.0598 190.529 59.9706C190.582 59.8969 190.626 59.8181 190.662 59.7353C190.676 59.6526 190.676 59.568 190.662 59.4853C190.674 59.3926 190.674 59.2986 190.662 59.2059C190.62 59.0925 190.566 58.984 190.5 58.8824L190.25 58.4412C190.079 58.2089 189.987 57.9281 189.987 57.6397C189.987 57.3514 190.079 57.0706 190.25 56.8382C190.352 56.6971 190.484 56.5803 190.637 56.4964C190.789 56.4125 190.959 56.3635 191.132 56.3529C191.519 56.3148 191.905 56.4311 192.206 56.6765C192.405 56.8559 192.552 57.0863 192.629 57.3429C192.707 57.5995 192.713 57.8725 192.647 58.1324Z" fill="#231F20"/>
<path d="M194.456 58.3235L191.941 62.5441L191.309 62.1618L193.824 57.9412L194.456 58.3235Z" fill="#231F20"/>
<path d="M193.309 63.3824L195.353 58.5441L197.191 63.3824L198.529 60.2941L199.221 60.5735L197.191 65.3824L195.338 60.5441L194 63.7059L193.309 63.3824Z" fill="#231F20"/>
<path d="M203.5 61.7647L203.324 62.6177C203.031 62.219 202.611 61.9333 202.132 61.8088C201.898 61.7561 201.656 61.7524 201.421 61.7979C201.185 61.8435 200.962 61.9373 200.765 62.0735C200.561 62.2061 200.387 62.3789 200.253 62.5812C200.119 62.7835 200.028 63.0111 199.985 63.25C199.924 63.4831 199.912 63.7264 199.95 63.9644C199.988 64.2024 200.075 64.4299 200.206 64.6324C200.33 64.8387 200.496 65.0163 200.694 65.1532C200.892 65.2901 201.116 65.3833 201.353 65.4265C201.575 65.479 201.807 65.479 202.029 65.4265C202.147 65.4106 202.261 65.3758 202.368 65.3235L202.765 65.1471L202.574 66.0147C202.128 66.1628 201.65 66.1882 201.191 66.0882C200.547 65.9502 199.982 65.5646 199.619 65.0145C199.256 64.4645 199.124 63.7939 199.25 63.1471C199.398 62.4791 199.804 61.8968 200.38 61.5275C200.956 61.1582 201.655 61.032 202.324 61.1765C202.76 61.2667 203.166 61.4695 203.5 61.7647Z" fill="#231F20"/>
<path d="M206.868 62.4265L204.897 62.2941L204.824 63.4706L206.735 63.6029V64.2941L204.838 64.1765L204.735 65.8088L206.691 65.9412V66.6324L203.985 66.4559L204.309 61.5588L207.015 61.7353L206.868 62.4265Z" fill="#231F20"/>
<path d="M210.721 62.1324L209.882 62.25L210.176 61.5147L211.353 61.3235L212.088 66.1765L211.353 66.2941L210.721 62.1324Z" fill="#231F20"/>
<path d="M214.912 65.7353L214.265 65.5L214.956 63.6324H214.809H214.706C214.52 63.6887 214.324 63.7047 214.131 63.6793C213.939 63.654 213.753 63.5878 213.588 63.4853C213.411 63.3886 213.256 63.2565 213.132 63.0971C213.008 62.9377 212.918 62.7545 212.868 62.5588C212.807 62.3512 212.789 62.1336 212.815 61.9189C212.84 61.7042 212.908 61.4968 213.015 61.3088C213.114 61.1192 213.252 60.9521 213.419 60.818C213.586 60.6839 213.779 60.5857 213.985 60.5294C214.403 60.4097 214.852 60.4572 215.235 60.6618C215.428 60.7519 215.599 60.8828 215.736 61.0452C215.873 61.2077 215.973 61.398 216.029 61.6029C216.124 62.0459 216.083 62.5072 215.912 62.9265L214.912 65.7353ZM213.544 62.4118C213.576 62.5322 213.633 62.6444 213.711 62.7408C213.79 62.8372 213.888 62.9156 214 62.9706C214.104 63.0352 214.222 63.0766 214.343 63.0918C214.465 63.107 214.589 63.0958 214.706 63.0588C214.822 63.0255 214.929 62.9693 215.023 62.8935C215.116 62.8178 215.194 62.7239 215.25 62.6177C215.314 62.5129 215.355 62.3958 215.37 62.2742C215.385 62.1525 215.374 62.029 215.338 61.9118C215.305 61.7933 215.248 61.6828 215.171 61.5866C215.094 61.4905 214.998 61.4106 214.89 61.3517C214.782 61.2928 214.663 61.2561 214.541 61.2437C214.418 61.2313 214.294 61.2434 214.177 61.2794C214.059 61.3075 213.948 61.3617 213.854 61.438C213.76 61.5144 213.684 61.611 213.632 61.7206C213.572 61.8238 213.532 61.9383 213.517 62.0571C213.502 62.1759 213.511 62.2966 213.544 62.4118Z" fill="#231F20"/>
<path d="M217.647 61.9265C217.445 61.8939 217.253 61.8108 217.092 61.6848C216.93 61.5589 216.802 61.3942 216.721 61.2059C216.648 61.0362 216.611 60.8536 216.611 60.6691C216.611 60.4846 216.648 60.302 216.721 60.1324C216.788 59.9532 216.893 59.7901 217.027 59.6534C217.161 59.5167 217.322 59.4094 217.5 59.3382C217.671 59.262 217.857 59.2226 218.044 59.2226C218.232 59.2226 218.417 59.262 218.588 59.3382C218.762 59.3997 218.921 59.4969 219.056 59.6235C219.19 59.7501 219.296 59.9034 219.368 60.0735C219.465 60.2515 219.517 60.4513 219.517 60.6544C219.517 60.8575 219.465 61.0573 219.368 61.2353C219.591 61.2562 219.805 61.3375 219.985 61.4706C220.182 61.612 220.335 61.8056 220.426 62.0294C220.503 62.2109 220.543 62.4059 220.543 62.6029C220.543 62.8 220.503 62.995 220.426 63.1765C220.352 63.3626 220.241 63.5316 220.1 63.6732C219.958 63.8148 219.789 63.926 219.603 64C219.422 64.0972 219.222 64.1553 219.017 64.1705C218.812 64.1857 218.605 64.1577 218.412 64.0882C218.224 64.0266 218.052 63.925 217.907 63.7904C217.762 63.6559 217.649 63.4916 217.574 63.3088C217.436 63.101 217.369 62.8544 217.382 62.6055C217.395 62.3566 217.488 62.1185 217.647 61.9265ZM217.353 60.9118C217.435 61.0915 217.582 61.2334 217.765 61.3088C217.95 61.3756 218.154 61.3667 218.333 61.2841C218.512 61.2016 218.651 61.052 218.721 60.8677C218.794 60.6886 218.794 60.4878 218.721 60.3088C218.682 60.2203 218.625 60.1407 218.554 60.0749C218.484 60.0091 218.4 59.9586 218.309 59.9265C218.221 59.8867 218.126 59.8661 218.029 59.8661C217.933 59.8661 217.838 59.8867 217.75 59.9265C217.661 59.9653 217.582 60.0218 217.516 60.0927C217.45 60.1635 217.4 60.2471 217.368 60.3382C217.329 60.4293 217.31 60.5277 217.313 60.6266C217.315 60.7256 217.339 60.8228 217.382 60.9118H217.353ZM218.176 62.9265C218.265 63.1276 218.428 63.286 218.632 63.3677C218.732 63.411 218.84 63.4333 218.948 63.4333C219.057 63.4333 219.165 63.411 219.265 63.3677C219.364 63.3259 219.453 63.2638 219.527 63.1852C219.6 63.1067 219.656 63.0135 219.691 62.9118C219.771 62.7137 219.771 62.4922 219.691 62.2941C219.649 62.195 219.587 62.1057 219.509 62.0323C219.43 61.9588 219.337 61.9027 219.235 61.8677C219.138 61.8238 219.033 61.8011 218.926 61.8011C218.82 61.8011 218.715 61.8238 218.618 61.8677C218.52 61.9116 218.432 61.9745 218.359 62.0528C218.285 62.1311 218.228 62.2231 218.191 62.3235C218.152 62.4196 218.133 62.5228 218.135 62.6265C218.138 62.7303 218.162 62.8325 218.206 62.9265H218.176Z" fill="#231F20"/>
<path d="M221.588 57.9118L219.544 59.2206L219.176 58.6324L222.265 56.6765L222.382 62.5588H221.691L221.588 57.9118Z" fill="#231F20"/>
<path d="M207.044 69.3382C200.602 69.3382 194.304 67.4278 188.947 63.8486C183.591 60.2694 179.416 55.1821 176.95 49.2301C174.485 43.278 173.84 36.7286 175.096 30.4099C176.353 24.0913 179.456 18.2872 184.011 13.7317C188.567 9.17625 194.371 6.07393 200.689 4.81707C207.008 3.56021 213.557 4.20528 219.509 6.67069C225.461 9.1361 230.549 13.3111 234.128 18.6678C237.707 24.0245 239.618 30.3223 239.618 36.7647C239.61 45.4014 236.175 53.682 230.068 59.7891C223.961 65.8961 215.681 69.3305 207.044 69.3382ZM207.044 4.54412C200.671 4.54412 194.442 6.43382 189.143 9.97427C183.845 13.5147 179.715 18.5469 177.276 24.4344C174.837 30.322 174.199 36.8004 175.443 43.0506C176.686 49.3008 179.755 55.042 184.261 59.5481C188.767 64.0542 194.508 67.123 200.758 68.3662C207.008 69.6094 213.487 68.9714 219.374 66.5326C225.262 64.0939 230.294 59.9642 233.835 54.6655C237.375 49.3669 239.265 43.1373 239.265 36.7647C239.253 28.2229 235.855 20.0342 229.815 13.9942C223.775 7.9542 215.586 4.55579 207.044 4.54412Z" fill="#231F20"/>
<path d="M181.794 30.2059L181.353 32.25L182.397 33.0441L182.235 33.8235L177.647 30.3382L183.235 29.1618L183.074 29.9412L181.794 30.2059ZM181.044 30.3529L179.265 30.7059L180.735 31.8088L181.044 30.3529Z" fill="#231F20"/>
<path d="M180.603 24.6324L180.721 25.3235C180.549 25.3319 180.383 25.3824 180.235 25.4706C180.123 25.5613 180.04 25.6845 180 25.8235C179.964 25.9072 179.946 25.9973 179.946 26.0882C179.946 26.1792 179.964 26.2692 180 26.3529C180.019 26.4347 180.059 26.5102 180.115 26.5721C180.172 26.6339 180.244 26.68 180.324 26.7059C180.544 26.7941 180.794 26.7059 181.059 26.4265L181.427 26.0441C181.662 25.7784 181.96 25.5761 182.294 25.4559C182.583 25.3476 182.902 25.3476 183.191 25.4559C183.387 25.5263 183.565 25.6374 183.715 25.7819C183.865 25.9264 183.982 26.101 184.059 26.2941C184.139 26.485 184.18 26.69 184.18 26.8971C184.18 27.1041 184.139 27.3091 184.059 27.5C183.93 27.8678 183.66 28.1693 183.309 28.3382C182.939 28.5041 182.523 28.5354 182.132 28.4265L182.265 27.6618C182.467 27.7147 182.68 27.7147 182.882 27.6618C183.008 27.6312 183.124 27.5693 183.219 27.4819C183.314 27.3944 183.385 27.2843 183.427 27.1618C183.47 27.0647 183.493 26.9594 183.493 26.8529C183.493 26.7464 183.47 26.6412 183.427 26.5441C183.382 26.4427 183.317 26.3513 183.236 26.2755C183.155 26.1997 183.06 26.141 182.956 26.1029H182.706C182.623 26.0877 182.539 26.0877 182.456 26.1029C182.361 26.1204 182.274 26.1666 182.206 26.2353C182.106 26.2996 182.012 26.3735 181.926 26.4559L181.574 26.8235C181.405 27.042 181.175 27.2049 180.913 27.2914C180.651 27.3779 180.369 27.384 180.103 27.3088C179.939 27.2437 179.792 27.1425 179.672 27.0126C179.552 26.8828 179.463 26.7277 179.412 26.5588C179.338 26.34 179.314 26.1074 179.342 25.8782C179.37 25.6489 179.448 25.4288 179.573 25.2341C179.697 25.0393 179.863 24.8749 180.059 24.753C180.255 24.631 180.476 24.5546 180.706 24.5294L180.603 24.6324Z" fill="#231F20"/>
<path d="M181.941 22.0588L185.603 24.1471L185.235 24.7941L181.574 22.7059L181.015 23.6912L180.412 23.3382L181.882 20.7353L182.5 21.0882L181.941 22.0588Z" fill="#231F20"/>
<path d="M184.721 18.0588L183.544 19.6324L184.471 20.3382L185.632 18.8676L186.191 19.2794L185.029 20.75L186.338 21.7353L187.529 20.1618L188.088 20.5882L186.456 22.75L182.529 19.8088L184.176 17.6471L184.721 18.0588Z" fill="#231F20"/>
<path d="M188.338 17.3382L190.897 17.7647L190.25 18.3971L187.838 17.9559L187.75 18.0441L189.221 19.5147L188.691 20.0441L185.235 16.5441L185.868 15.9265C186.189 15.5493 186.63 15.2947 187.118 15.2059C187.477 15.2028 187.824 15.3313 188.095 15.5669C188.366 15.8026 188.542 16.1293 188.588 16.4853C188.606 16.7899 188.517 17.0912 188.338 17.3382ZM187.294 17.5882L187.456 17.4118C187.956 16.9265 188.029 16.4853 187.647 16.1029C187.265 15.7206 186.868 15.8088 186.382 16.2941L186.206 16.4706L187.294 17.5882Z" fill="#231F20"/>
<path d="M192.882 16.25L190.382 12.0147L191.265 11.5C191.6 11.2869 191.968 11.128 192.353 11.0294C192.667 10.956 192.994 10.956 193.309 11.0294C193.645 11.0993 193.961 11.2422 194.236 11.4481C194.51 11.6539 194.736 11.9177 194.897 12.2206C195.083 12.5097 195.202 12.8367 195.245 13.1776C195.288 13.5185 195.255 13.8648 195.147 14.1912C195.056 14.503 194.895 14.7898 194.676 15.0294C194.406 15.3115 194.094 15.5497 193.75 15.7353L192.882 16.25ZM193.162 15.2647L193.456 15.1029C193.696 14.965 193.914 14.7914 194.103 14.5882C194.26 14.4103 194.376 14.1992 194.441 13.9706C194.515 13.7381 194.536 13.4922 194.503 13.2506C194.47 13.009 194.383 12.7777 194.25 12.5735C194.132 12.3597 193.97 12.1731 193.775 12.0262C193.58 11.8792 193.356 11.775 193.118 11.7206C192.6 11.6474 192.075 11.7736 191.647 12.0735L191.353 12.2353L193.162 15.2647Z" fill="#231F20"/>
<path d="M196.603 14.0294L195.912 8.69118L198.721 11.7647L199.162 7.58824L201.721 12.3088L201 12.5441L199.529 9.88235L199.162 13.3676L196.824 10.7794L197.25 13.7206L196.603 14.0294Z" fill="#231F20"/>
<path d="M205.073 8.95588H207.191V7.04412H207.941L208.088 11.9559H207.353V9.67647H205.235V11.9706H204.5L204.265 7.05882H205L205.073 8.95588Z" fill="#231F20"/>
<path d="M212.235 8.10294L210.294 7.85294L210.147 9.02941L212.044 9.26471L211.956 9.95588L210.059 9.72059L209.853 11.3382L211.794 11.5882L211.706 12.2794L209.029 11.9412L209.647 7.07353L212.338 7.41177L212.235 8.10294Z" fill="#231F20"/>
<path d="M215.603 12.1176L213.588 11.5147L212.721 12.5L211.956 12.2647L215.794 7.97059L216.529 13.6471L215.75 13.4118L215.603 12.1176ZM215.515 11.3676L215.294 9.55882L214.088 10.9265L215.515 11.3676Z" fill="#231F20"/>
<path d="M219.676 9.79412L217.868 13.6029L219.176 14.2206L218.882 14.8382L216.897 13.9118L219 9.5L219.676 9.79412Z" fill="#231F20"/>
<path d="M222.441 12.0882L220.265 15.6912L219.632 15.3088L221.809 11.7647L220.853 11.1765L221.206 10.5735L223.765 12.1324L223.412 12.7353L222.441 12.0882Z" fill="#231F20"/>
<path d="M224.118 14.7059L225.735 16.0735L226.971 14.6029L227.544 15.0882L224.382 18.8529L223.824 18.3676L225.294 16.6176L223.677 15.25L222.206 17.0147L221.647 16.5294L224.794 12.7794L225.368 13.25L224.118 14.7059Z" fill="#231F20"/>
<path d="M230.971 19.3676L230.294 19.9412C230.313 19.4499 230.162 18.9671 229.868 18.5735C229.72 18.3846 229.533 18.2301 229.32 18.1209C229.106 18.0117 228.872 17.9503 228.632 17.9412C228.389 17.9177 228.143 17.9447 227.91 18.0206C227.677 18.0965 227.462 18.2197 227.279 18.3824C227.091 18.5337 226.934 18.7207 226.818 18.9326C226.702 19.1446 226.629 19.3774 226.603 19.6176C226.577 19.8547 226.6 20.0946 226.671 20.3223C226.742 20.55 226.859 20.7607 227.015 20.9412C227.16 21.1177 227.341 21.2628 227.544 21.3676C227.649 21.4292 227.763 21.4739 227.882 21.5C228.017 21.5447 228.154 21.5791 228.294 21.6029L227.618 22.1765C227.178 22.0131 226.788 21.7397 226.485 21.3824C226.27 21.1278 226.107 20.8333 226.006 20.5156C225.905 20.198 225.868 19.8635 225.897 19.5314C225.925 19.1993 226.019 18.8762 226.173 18.5805C226.327 18.2849 226.538 18.0227 226.794 17.8088C227.265 17.4188 227.859 17.2101 228.471 17.2206C228.847 17.216 229.22 17.2986 229.559 17.4618C229.898 17.6251 230.195 17.8647 230.426 18.1618C230.721 18.5025 230.91 18.9215 230.971 19.3676Z" fill="#231F20"/>
<path d="M230.324 25L229.294 23.1765L228 23.2794L227.603 22.5735L233.338 22.1471L229.926 26.75L229.544 26.0294L230.324 25ZM230.779 24.3971L231.882 22.9265L230.059 23.0735L230.779 24.3971Z" fill="#231F20"/>
<path d="M232.559 28.0147L231.088 30.1471L230.794 29.2941L232.265 27.3088V27.1765L230.368 27.8529L230.118 27.1471L234.75 25.5147L235.029 26.3235C235.242 26.7837 235.289 27.3034 235.162 27.7941C235.091 27.985 234.977 28.157 234.829 28.2972C234.681 28.4374 234.503 28.5419 234.309 28.6029C234.005 28.713 233.672 28.713 233.368 28.6029C233.201 28.5635 233.043 28.4911 232.904 28.3901C232.765 28.2891 232.648 28.1615 232.559 28.0147ZM232.779 26.9559L232.853 27.1912C233.088 27.8529 233.471 28.0882 233.971 27.9118C234.471 27.7353 234.559 27.3382 234.338 26.6912L234.25 26.4412L232.779 26.9559Z" fill="#231F20"/>
<path d="M235.868 32.5588L235.485 30.6324L234.324 30.8529L234.691 32.7353L234.015 32.8676L233.647 30.9853L232.029 31.3088L232.353 33.2353L231.676 33.3676L231.147 30.7059L235.971 29.7647L236.485 32.4265L235.868 32.5588Z" fill="#231F20"/>
</svg>
