<svg width="250" height="35" viewBox="0 0 250 35" fill="none" xmlns="http://www.w3.org/2000/svg">
<g clip-path="url(#clip0_641_1240)">
<path d="M0 32.23H30.3136L28.5714 34.669H0V32.23Z" fill="#D40511"/>
<path d="M250 34.669H212.892L214.808 32.23H250.174V34.669H250Z" fill="#D40511"/>
<path d="M0 27.7003H33.7979L31.8815 30.1394H0V27.7003Z" fill="#D40511"/>
<path d="M0 23.1707H37.2822L35.3659 25.6098H0V23.1707Z" fill="#D40511"/>
<path d="M250 30.1394H216.376L218.293 27.7003H250.174V30.1394H250Z" fill="#D40511"/>
<path d="M221.603 23.1707H250V25.6098H219.686L221.603 23.1707Z" fill="#D40511"/>
<path d="M32.7526 34.669L48.7804 13.2404C48.7804 13.2404 66.5505 13.2404 68.6411 13.2404C70.9059 13.2404 70.9059 14.1115 69.6864 15.5052C68.6411 16.899 66.7247 19.5122 65.6794 20.9059C65.1567 21.777 64.1115 22.9965 67.4216 22.9965C71.0801 22.9965 94.0766 22.9965 94.0766 22.9965C91.986 26.1324 84.6689 34.8432 71.777 34.8432C61.324 34.669 32.7526 34.669 32.7526 34.669Z" fill="#D40511"/>
<path d="M124.564 23.1707L115.854 34.8432H93.0314L101.742 23.1707H124.564Z" fill="#D40511"/>
<path d="M157.84 23.1707L149.129 34.8432H126.132L134.843 23.1707H157.84Z" fill="#D40511"/>
<path d="M165.331 23.1707C165.331 23.1707 163.589 25.4355 162.892 26.4808C159.93 30.3136 162.544 34.8432 171.951 34.8432C182.753 34.8432 208.885 34.8432 208.885 34.8432L217.596 23.1707H165.331Z" fill="#D40511"/>
<path d="M44.0767 7.00355e-07L36.0627 10.6272C36.0627 10.6272 77.3519 10.6272 79.6167 10.6272C81.8816 10.6272 81.8815 11.4983 80.662 12.892C79.6167 14.2857 77.7004 16.899 76.6551 18.2927C76.1324 18.9895 75.0871 20.3833 78.3972 20.3833C82.0558 20.3833 96.1673 20.3833 96.1673 20.3833C96.1673 20.3833 99.1289 16.5505 101.394 13.2404C104.704 8.88502 101.742 -0.174215 90.0697 -0.174215C79.6167 7.00355e-07 44.0767 7.00355e-07 44.0767 7.00355e-07Z" fill="#D40511"/>
<path d="M159.756 20.3833H103.659L118.99 0H141.986L133.275 11.6725H143.554L152.265 0H175.261L159.756 20.3833Z" fill="#D40511"/>
<path d="M206.969 0L191.638 20.3833H167.247L182.578 0H206.969Z" fill="#D40511"/>
</g>
<defs>
<clipPath id="clip0_641_1240">
<rect width="250" height="34.8432" fill="white"/>
</clipPath>
</defs>
</svg>
