<svg width="80" height="80" viewBox="0 0 80 80" fill="none" xmlns="http://www.w3.org/2000/svg">
<circle cx="40" cy="40" r="40" fill="black"/>
<path d="M55.3189 24.0181L45.3944 26.7224C45.2243 26.7782 45.1066 26.934 45.0993 27.1128C45.0921 27.2918 45.1966 27.4565 45.3618 27.526L48.518 28.999C48.5633 29.0202 48.5968 29.0601 48.6095 29.1084C48.6225 29.1566 48.6135 29.2079 48.585 29.2488L41.7273 39.1016L36.348 38.021L36.2766 38.0063C35.9107 37.9335 35.5315 37.9708 35.1869 38.1137C34.8422 38.2565 34.5478 38.4983 34.3406 38.8085L24.2252 53.9147C24.0386 54.1955 23.964 54.5364 24.0163 54.8696C24.0687 55.2029 24.2442 55.5042 24.5082 55.7143C24.7859 55.9335 25.1395 56.0328 25.4908 55.9904C25.8419 55.9478 26.1618 55.767 26.3792 55.4879L36.7672 42.1978L42.2228 43.2936H42.2226C42.5766 43.3642 42.9431 43.3374 43.2831 43.2157C43.6231 43.0943 43.9237 42.8829 44.1528 42.6039L44.205 42.5403L52.5456 32.3834C52.5777 32.3443 52.6257 32.3218 52.6764 32.322C52.727 32.3225 52.7748 32.3457 52.8063 32.3854L54.9721 35.1029C55.0777 35.2476 55.2625 35.3105 55.4346 35.2607C55.6065 35.211 55.729 35.0589 55.7413 34.8804L55.9998 24.5555C56.0047 24.3847 55.9283 24.2218 55.7942 24.116C55.66 24.0102 55.4839 23.9742 55.319 24.0186L55.3189 24.0181Z" fill="white"/>
</svg>
