<svg width="80" height="80" viewBox="0 0 80 80" fill="none" xmlns="http://www.w3.org/2000/svg">
<circle cx="40" cy="40" r="40" fill="black"/>
<path d="M27.1996 39.9996C27.1996 32.9305 32.9305 27.1993 40 27.1993C47.0695 27.1993 52.8004 32.9301 52.8004 39.9996C52.8004 47.0691 47.0695 52.8 40 52.8C39.1163 52.8 38.4001 53.5162 38.4001 54.3999C38.4001 55.2836 39.1163 55.9998 40 55.9998C48.8369 55.9998 56 48.8368 56 39.9999C56 31.163 48.8369 24 40 24C31.1631 24 24 31.163 24 39.9999C24 44.3012 25.6471 48.1332 28.3755 50.9618L26.0687 53.2686C25.6109 53.7264 25.474 54.4145 25.7218 55.0124C25.9693 55.6103 26.5527 56 27.1999 56H33.6002C34.4839 56 35.2001 55.2838 35.2001 54.4001V48.0001C35.2001 47.3527 34.8104 46.7696 34.2125 46.5218C33.6144 46.274 32.9262 46.4111 32.4687 46.8687L30.6385 48.6989C28.4886 46.4494 27.1999 43.4165 27.1999 39.9999L27.1996 39.9996Z" fill="white"/>
<path d="M43.669 45.9298C44.2939 46.5544 45.307 46.5544 45.9319 45.9298C46.5566 45.3049 46.5566 44.2918 45.9319 43.6669L41.6003 39.3356V31.9984C41.6003 31.1147 40.884 30.3984 40.0003 30.3984C39.1166 30.3984 38.4004 31.1147 38.4004 31.9984V39.9987C38.4004 40.423 38.5689 40.8301 38.8689 41.1301L43.669 45.9298Z" fill="white"/>
</svg>
