<svg width="80" height="80" viewBox="0 0 80 80" fill="none" xmlns="http://www.w3.org/2000/svg">
<circle cx="40" cy="40" r="40" fill="black"/>
<path fill-rule="evenodd" clip-rule="evenodd" d="M32.1275 39.3528C36.0826 39.3528 39.2889 42.6572 39.2889 46.7341C39.2889 50.8106 36.0829 54.1154 32.1275 54.1154C28.1723 54.1154 24.966 50.8109 24.966 46.7341C24.9662 42.6578 28.1723 39.3528 32.1275 39.3528ZM53.2827 46.4249H50.3336C49.9781 46.4249 49.6886 46.7237 49.6886 47.0896V53.2862H53.9281L53.9278 47.0899C53.9278 46.7235 53.6381 46.4249 53.2826 46.4249H53.2827ZM55.3544 54.3504H24.645C24.2895 54.3504 24 54.6492 24 55.0151V55.3352C24 55.7016 24.29 56 24.645 56H55.355C55.7105 56 56 55.7011 56 55.3352V55.0151C56 54.6492 55.7103 54.3504 55.3548 54.3504H55.3544ZM48.6284 37.7932L48.508 39.6344C48.5029 39.7129 48.5396 39.7827 48.6058 39.8214C48.6721 39.8602 48.7492 39.8564 48.8116 39.8117L53.417 36.5109C53.467 36.4752 53.4961 36.4224 53.4995 36.3596C53.5034 36.2968 53.4813 36.2413 53.4362 36.1991L49.2979 32.3482C49.2413 32.2959 49.1659 32.2821 49.0957 32.3111C49.0254 32.3407 48.9805 32.4044 48.9751 32.4825L48.8504 34.3909C45.4988 34.2972 40.9069 32.8881 37.9719 31.0817C34.7354 29.0897 32.6121 26.719 31.1179 24C32.113 28.131 35.0686 32.2187 39.4832 34.9353C42.4536 36.7642 45.642 37.6985 48.6287 37.7926L48.6284 37.7932ZM34.5887 37.446C34.2332 37.446 33.9437 37.7449 33.9437 38.1113V38.4974C35.6051 38.8851 37.0748 39.7926 38.1832 41.0457V38.1113C38.1832 37.7449 37.8932 37.446 37.5382 37.446L34.5887 37.446ZM38.1832 52.4218C37.909 52.7322 37.6118 53.0208 37.2959 53.2862H38.1832V52.4218ZM29.6657 33.3197H26.7161C26.3607 33.3197 26.0712 33.6186 26.0712 33.9845V41.0444C27.1796 39.7914 28.6498 38.8838 30.3107 38.4961V33.9842C30.3109 33.6181 30.0212 33.3194 29.6657 33.3194V33.3197ZM26.0712 52.4218V53.2862H26.9585C26.6426 53.0211 26.3458 52.7322 26.0712 52.4218ZM42.4608 42.0321H45.4103C45.7658 42.0321 46.0558 42.3309 46.0553 42.6973V53.2862H41.8156V42.6967C41.8156 42.3308 42.1053 42.0319 42.4608 42.0319V42.0321ZM34.265 44.7928C33.9615 44.0473 33.383 43.6166 32.7475 43.4506L32.7 43.4386V43.1667C32.7 42.8406 32.4435 42.5762 32.1271 42.5762C31.8107 42.5762 31.5542 42.8406 31.5542 43.1667V43.4471C31.2227 43.5296 30.9124 43.6811 30.6583 43.8942C30.2272 44.2559 29.9534 44.7806 29.9842 45.435C30.0153 46.0958 30.3346 46.5382 30.7789 46.8373C31.1569 47.0916 31.617 47.2224 32.0399 47.294C32.3578 47.3477 32.6958 47.4323 32.9484 47.5891C33.1343 47.7049 33.2738 47.8722 33.3031 48.1215C33.3075 48.1588 33.3099 48.1835 33.3099 48.1955C33.3143 48.3846 33.2253 48.5299 33.0911 48.6344C32.9062 48.779 32.6422 48.8645 32.3762 48.898C32.3 48.9073 32.2365 48.9131 32.185 48.9141C31.8713 48.9218 31.5629 48.8435 31.3234 48.6787C31.1332 48.5484 30.9883 48.3578 30.9277 48.108C30.8522 47.7921 30.5426 47.5991 30.2363 47.6766C29.9299 47.7544 29.7426 48.0735 29.8178 48.3891C29.9534 48.9501 30.274 49.374 30.692 49.6608C30.9492 49.8374 31.2443 49.9597 31.5541 50.0275V50.2986C31.5541 50.6247 31.8106 50.889 32.127 50.889C32.4434 50.889 32.6999 50.6247 32.6999 50.2986V50.039C33.0848 49.9654 33.4705 49.8124 33.7804 49.5703C34.192 49.2484 34.4657 48.787 34.4516 48.1673C34.4499 48.0955 34.4463 48.0335 34.44 47.9824C34.3606 47.308 34.0073 46.8695 33.5393 46.5781C33.1377 46.3283 32.6606 46.2048 32.2236 46.1307C31.9298 46.081 31.6221 45.9977 31.4011 45.8491C31.2468 45.7453 31.1359 45.596 31.1257 45.3785C31.1145 45.1369 31.2169 44.9418 31.3785 44.8062C31.512 44.6944 31.6833 44.6164 31.8694 44.5782C32.0625 44.5381 32.2705 44.5411 32.4694 44.5934C32.7786 44.6742 33.06 44.8843 33.2083 45.2482C33.3309 45.5488 33.6664 45.6903 33.9581 45.5641C34.2502 45.4393 34.3871 45.0934 34.265 44.7928L34.265 44.7928ZM32.1268 40.565C30.4742 40.565 28.9781 41.2555 27.8954 42.3714C26.8122 43.4879 26.1427 45.0299 26.1427 46.7328C26.1427 48.4362 26.8127 49.9782 27.8954 51.0942C28.9781 52.2101 30.4747 52.9006 32.1268 52.9006C33.7795 52.9006 35.2756 52.2101 36.3583 51.0942C37.4415 49.9777 38.111 48.4357 38.111 46.7328C38.111 45.0295 37.441 43.4874 36.3583 42.3714C35.2756 41.2558 33.7795 40.565 32.1268 40.565ZM35.6284 43.1242C34.7323 42.2006 33.4942 41.6292 32.1266 41.6292C30.759 41.6292 29.5208 42.2006 28.6247 43.1242C27.7286 44.0479 27.1742 45.324 27.1742 46.7336C27.1742 48.1431 27.7286 49.4193 28.6247 50.3429C29.5209 51.2665 30.759 51.838 32.1266 51.838C33.4942 51.838 34.7323 51.2665 35.6284 50.3429C36.5245 49.4193 37.079 48.1431 37.079 46.7336C37.079 45.3238 36.525 44.0478 35.6284 43.1242Z" fill="white"/>
</svg>
