<svg width="80" height="80" viewBox="0 0 80 80" fill="none" xmlns="http://www.w3.org/2000/svg">
<circle cx="40" cy="40" r="40" fill="black"/>
<path d="M36.1948 48.2018L45.3078 39.8863C46.4679 40.1314 47.7285 39.9923 48.8407 39.4059C50.4323 38.5677 51.3054 37.033 51.2717 35.4673C51.2681 35.3075 51.0776 35.2088 50.9259 35.2887L48.4006 36.6193L46.4053 35.5571L46.3953 33.4495L48.9206 32.1189C49.0722 32.0388 49.0741 31.8391 48.9241 31.7566C47.4434 30.9406 45.5326 30.8684 43.9333 31.7273C42.0867 32.7193 41.2093 34.7128 41.6659 36.5539L32.548 44.8738C31.5413 45.7924 31.5413 47.2823 32.548 48.2014C33.5548 49.1207 35.1872 49.1207 36.1945 48.2021L36.1948 48.2018Z" fill="white"/>
<path d="M56 47.5438H49.8005L51.8667 49.4292C49.1068 51.9478 45.4376 53.3347 41.5346 53.3347C37.6316 53.3347 33.9622 51.9478 31.2019 49.4292C28.442 46.9114 26.9224 43.5629 26.9224 40.0013C26.9224 39.2649 26.2682 38.668 25.4612 38.668C24.6542 38.668 24 39.2649 24 40.0013C24 44.2751 25.8241 48.2933 29.1359 51.3149C32.4475 54.3367 36.851 56.0012 41.5345 56.0012C46.218 56.0012 50.6211 54.3367 53.9331 51.3149L55.9999 53.2008L56 47.5438Z" fill="white"/>
<path d="M41.5266 26.6666C42.3333 26.6666 42.9877 26.0694 42.9877 25.3333C42.9877 24.5972 42.3333 24 41.5266 24C40.7161 24 40.0654 24.5972 40.0654 25.3333C40.0654 26.0694 40.7205 26.6666 41.5266 26.6666Z" fill="white"/>
<path d="M47.6785 27.776C48.4852 27.776 49.1397 27.1788 49.1397 26.4427C49.1397 25.7066 48.4852 25.1094 47.6785 25.1094C46.868 25.1094 46.2173 25.7066 46.2173 26.4427C46.2173 27.1785 46.8723 27.776 47.6785 27.776Z" fill="white"/>
<path d="M52.9007 30.9597C53.7074 30.9597 54.3619 30.3624 54.3619 29.6263C54.3619 28.8902 53.7074 28.293 52.9007 28.293C52.0902 28.293 51.4395 28.8902 51.4395 29.6263C51.4395 30.3622 52.0945 30.9597 52.9007 30.9597Z" fill="white"/>
<path d="M35.3758 27.7839C36.1825 27.7839 36.837 27.1867 36.837 26.4505C36.837 25.7144 36.1825 25.1172 35.3758 25.1172C34.5653 25.1172 33.9146 25.7144 33.9146 26.4505C33.9146 27.1867 34.569 27.7839 35.3758 27.7839Z" fill="white"/>
<path d="M30.1673 30.9597C30.974 30.9597 31.6285 30.3624 31.6285 29.6263C31.6285 28.8902 30.974 28.293 30.1673 28.293C29.3568 28.293 28.7061 28.8902 28.7061 29.6263C28.7061 30.3622 29.3611 30.9597 30.1673 30.9597Z" fill="white"/>
<path d="M26.6809 35.7135C27.4877 35.7135 28.1421 35.1163 28.1421 34.3802C28.1421 33.6441 27.4876 33.0469 26.6809 33.0469C25.8705 33.0469 25.2197 33.6441 25.2197 34.3802C25.2197 35.1163 25.8748 35.7135 26.6809 35.7135Z" fill="white"/>
</svg>
