<svg width="64" height="64" viewBox="0 0 64 64" fill="none" xmlns="http://www.w3.org/2000/svg">
<path fill-rule="evenodd" clip-rule="evenodd" d="M32 0C49.67 0 64 14.33 64 32C64 49.6703 49.67 64 32 64C14.3297 64 0 49.6703 0 32C0 14.33 14.3297 0 32 0ZM32 14.451C40.8387 14.451 48.1522 20.9891 49.3696 29.4917H14.6304C15.8478 20.9891 23.1613 14.451 32 14.451ZM18.6085 50.7439C18.6747 51.5414 19.3511 53.6286 19.6132 54.5492C19.9151 55.611 20.1254 57.5844 21.3873 57.5844C22.8612 57.5844 22.8195 55.773 23.1874 54.5753C23.5679 53.3372 23.9776 52.011 24.2728 50.7439C24.9961 51.7855 25.6363 57.5844 26.8374 57.5844C27.3548 57.5844 27.6927 57.2466 27.6927 56.7297C27.6927 55.9867 26.6085 52.7024 26.3458 51.7706C26.0297 50.6509 25.5835 47.4307 24.3796 47.4307C23.0428 47.4307 22.8452 49.6544 22.5644 50.7455C22.4009 51.3809 21.6113 54.3763 21.3873 54.6988C21.0788 53.3754 20.5964 52.1382 20.2954 50.7669C20.1705 50.1972 19.928 49.4759 19.7436 48.8607C19.5236 48.1264 19.5064 47.4307 18.6085 47.4307C17.5006 47.4307 17.5224 48.1924 17.2591 49.0738C17.0213 49.8684 16.8298 50.6708 16.5901 51.3974C16.1099 52.8548 15.6609 54.5563 15.273 56.0666C15.0619 56.8886 15.3365 57.7508 16.2609 57.4901C16.812 57.335 17.0446 56.0078 17.1996 55.4272C17.4067 54.6493 18.2378 51.0158 18.6085 50.7439ZM38.7004 47.965V56.8367C38.7004 57.4665 40.3035 57.9949 40.3035 56.4091V48.1787C40.3035 47.788 40.0086 47.3237 39.6621 47.3237H39.3418C39.0843 47.3237 38.7004 47.7075 38.7004 47.965ZM41.3721 48.2857V56.7297C41.3721 57.241 41.7339 57.4777 42.2273 57.4777H47.4639C48.6187 57.4777 48.6972 55.6181 46.7166 55.7808L46.2882 55.7945L45.754 55.7678L45.4333 55.7945L44.899 55.7678H42.9752V48.1787C42.9752 47.6618 42.6373 47.3237 42.1202 47.3237H42.0134C41.5629 47.3237 41.3721 47.7908 41.3721 48.2857ZM29.1887 51.9196C29.1887 50.3726 30.8658 48.82 32.5021 48.82H32.8224C34.7042 48.82 36.2423 50.4653 36.2423 52.3472C36.2423 54.1063 34.6975 55.8744 33.0363 55.8744H32.5021C30.8968 55.8744 29.1887 54.2845 29.1887 52.7748V51.9196ZM27.6927 52.1335V52.8818C27.6927 55.1659 30.1808 57.371 32.6086 57.371C39.4921 57.371 39.1309 47.3237 32.8224 47.3237H32.395C29.9669 47.3237 27.6927 49.6507 27.6927 52.1335ZM16.4711 40.8039C16.4711 40.3644 17.0587 40.1623 17.5399 40.1623H19.1431V41.7656C19.1431 42.8162 16.4711 42.6905 16.4711 41.2315V40.8039ZM21.7076 32.0389V32.2528C21.7076 33.3943 23.8613 34.7111 25.2346 34.7111H25.5553C28.2021 34.7111 29.939 31.5049 28.3337 31.5049H28.2269C27.6288 31.5049 27.1047 33.2148 25.5553 33.2148H25.2346C23.4498 33.2148 23.208 31.5049 22.3493 31.5049H22.2422C21.993 31.5049 21.7076 31.7897 21.7076 32.0389ZM30.7921 40.1623C32.4164 40.1623 33.6774 39.4112 33.6774 37.8107C33.6774 36.9059 33.2978 37.1006 34.212 37.1697L34.6404 37.1563C34.7865 37.1805 34.9598 36.8888 34.9598 37.3833V41.1242C34.9598 42.2143 30.7921 43.4494 30.7921 40.4829V40.1623ZM21.3863 37.137L21.7076 37.1696L22.7765 37.1732L22.6804 37.9187L22.6696 38.0244C22.6696 38.309 22.9376 38.6657 22.4558 38.6657H20.7458L20.7456 37.1548L21.3863 37.137ZM14.8679 36.1007V36.4214C14.8679 36.9131 15.501 37.1697 16.0436 37.1697H19.1431V38.666H16.8985C13.4431 38.666 14.392 44.0101 17.5399 44.0101H18.2881C19.5625 44.0101 20.7459 42.9284 20.7459 41.5519V40.1623H22.6697C22.8995 41.2483 22.1225 44.6076 23.4179 45.2931C24.8277 44.9643 24.3796 43.1975 24.3796 41.4449C24.3796 40.6611 24.3796 39.8774 24.3796 39.0933C24.3796 38.7014 24.3822 38.3086 24.3787 37.9164C24.3699 36.9775 24.2864 37.2008 24.6997 37.1563L25.1281 37.1429L25.6624 37.1696H25.9831V44.1171C25.9831 45.0112 26.2795 45.0246 26.8378 45.293C28.1285 44.6735 27.693 43.5376 27.693 41.6588C27.693 40.1267 27.693 38.5944 27.693 37.0626C27.751 37.0866 28.0984 37.1696 28.2273 37.1696L28.5471 37.1562H28.9746H29.402L29.8304 37.1696C30.2453 37.1382 31.7398 37.001 31.8834 37.1578C32.1998 37.5037 31.9678 38.2849 31.6119 38.5235C31.3332 38.7101 30.338 38.8796 30.1511 38.8796L29.8313 38.8706L28.8687 38.7729V39.0933C28.8687 41.75 29.7031 44.0101 32.2885 44.0101C33.2162 44.0101 34.4023 43.5287 34.9602 43.1551C34.9602 44.6377 34.7779 44.7951 35.8155 45.293C37.0909 44.6178 36.6701 43.5635 36.6701 41.6588C36.6701 40.1268 36.6701 38.5944 36.6684 37.0956L37.524 37.1563H37.9515H38.3789H38.8064L39.2342 37.1376L40.0889 37.1563H40.5163L40.9441 37.1376L41.7988 37.1563H42.2263L42.654 37.1376L43.5087 37.1563H43.9362H44.364L44.7924 37.1697C45.0551 37.1497 45.2198 36.9535 45.2198 37.3834V38.452C45.2198 38.7804 44.2121 39.2687 43.9374 39.4143C43.5618 38.7046 42.5236 37.9177 41.4793 37.9177H40.6244C39.0399 37.9177 37.7388 39.3816 37.7388 41.0173V41.1242C37.7388 43.719 39.8501 45.1861 42.4411 45.1861C43.0978 45.1861 43.3841 44.8776 43.6167 44.4378C43.3672 43.9178 43.6158 43.6789 42.7572 43.5872C42.0489 43.5116 41.7214 43.6372 41.1233 43.4043C40.3337 43.0979 39.5555 42.377 39.5555 41.3379V40.8039C39.5555 40.2083 40.2426 39.521 40.8379 39.521H41.3722C41.9077 39.521 42.3294 39.943 42.5479 40.2692C42.2158 40.7653 41.7997 40.6661 41.7997 41.3379C41.7997 43.4363 44.5466 40.8764 45.2198 40.6966V44.1171C45.2198 45.0113 45.516 45.0247 46.0748 45.2931C46.7358 44.9429 46.9218 44.9192 46.9338 43.9075C46.9426 43.1623 46.9294 42.4056 46.9294 41.6589C46.9294 40.1268 46.9294 38.5944 46.9294 37.0627C47.1227 37.1427 49.3875 37.388 49.3875 36.4214V36.3144C49.3875 35.6774 48.956 35.4594 48.3187 35.4594H15.9366C15.4554 35.4594 14.8677 35.6616 14.8677 36.1007" fill="#2E3192"/>
</svg>
