<svg width="32" height="30" viewBox="0 0 32 30" fill="none" xmlns="http://www.w3.org/2000/svg">
<path d="M12.8557 6.49447C13.6559 6.15888 13.9915 5.20374 13.6301 4.42931L12.3652 1.77041C12.0038 1.02204 11.1261 0.686193 10.3516 1.02204C8.1574 1.95137 6.27294 3.16465 4.7757 4.63608C2.94286 6.3654 1.70376 8.35312 1.03258 10.5474C0.361404 12.7677 0 15.7877 0 19.6341V27.5592C0 28.411 0.696994 29.108 1.54887 29.108H11.694C12.5459 29.108 13.2429 28.411 13.2429 27.5592V17.414C13.2429 16.5619 12.5459 15.8652 11.694 15.8652H6.84086C6.89249 13.2576 7.51204 11.1669 8.64788 9.59196C9.57721 8.32756 10.9712 7.29498 12.8557 6.49447Z" fill="black"/>
<path d="M31.0808 6.49448C31.881 6.15889 32.2163 5.20375 31.8552 4.42932L30.5903 1.79649C30.2289 1.04787 29.3512 0.712276 28.5767 1.04787C26.4083 1.97719 24.5494 3.19048 23.0266 4.63609C21.1935 6.39148 19.9289 8.3792 19.2574 10.5734C18.5862 12.7416 18.2509 15.7622 18.2509 19.6344V27.5594C18.2509 28.4113 18.9479 29.1083 19.7998 29.1083H29.9449C30.7968 29.1083 31.4938 28.4113 31.4938 27.5594V17.4143C31.4938 16.5622 30.7968 15.8654 29.9449 15.8654H25.066C25.1176 13.2579 25.7374 11.1672 26.873 9.59223C27.8023 8.32758 29.1963 7.29499 31.0808 6.49448Z" fill="black"/>
</svg>
